<?xml version="1.0"?><svg viewBox="0 0 64 64" xmlns="http://www.w3.org/2000/svg"><g data-name="Layer 32" id="Layer_32"><path d="M2,7H59V47l-5,9H8a6,6,0,0,1-6-6Z" style="fill:#428c1c"/><path d="M12,2H8A6,6,0,0,0,2,8H2V50H2a6,6,0,0,1,6-6h4Z" style="fill:#785349"/><path d="M32.04,56H8L6.727,53.432a4.927,4.927,0,0,1,1.938-6.446h0a4.92,4.92,0,0,1,2.477-.669h3.622V27.164L31.513,38.51Z" style="fill:#50a022"/><polygon points="12 28 21.03 32.86 13 56 18 56 21.47 46 30 46 31 42 22.86 42 29.1 24 44 24 44 31 48 31 48 18 59 18 59 14 48 14 48 7 44 7 44 20 30.49 20 35 7 30 7 22.49 28.65 12 23 12 28" style="fill:#f9cb5d"/><rect height="7" style="fill:#0059be" width="11" x="48" y="7"/><polygon points="12 7 12 23 22.49 28.65 30 7 12 7" style="fill:#0059be"/><polygon points="21.47 46 30 46 36.945 56 18 56 21.47 46" style="fill:#0059be"/><polygon points="29.1 24 22.86 42 31 42 44 31 44 24 29.1 24" style="fill:#0059be"/><circle cx="45" cy="45" r="17" style="fill:#e73844"/><polygon points="14.764 29.487 14.764 24.488 12 23 12 28 14.764 29.487" style="fill:#a57f32"/><polygon points="14.764 24.488 14.764 7 12 7 12 23 14.764 24.488" style="fill:#004180"/><path d="M6.445,2.211A6,6,0,0,0,2,8V50a6,6,0,0,1,4.445-5.789Z" style="fill:#6b4137"/><path d="M45,28a16.918,16.918,0,0,0-11.04,4.088A16.988,16.988,0,0,0,60.04,52.912,16.99,16.99,0,0,0,45,28Z" style="fill:#ff4d55"/><polygon points="56 42 56 48 48 48 48 56 42 56 42 48 34 48 34 42 42 42 42 34 48 34 48 42 56 42" style="fill:#fff"/><path d="M60,7a1,1,0,0,0-1-1H13V2a1,1,0,0,0-1-1H8A7.008,7.008,0,0,0,1,8V50a7.008,7.008,0,0,0,7,7H31.622A17.978,17.978,0,0,0,60,35.072ZM49,27.464V19h9V32.584A17.979,17.979,0,0,0,49,27.464ZM27.464,41h-3.2l5.546-16H43v2.118A18.028,18.028,0,0,0,27.464,41ZM44,23H29.1a1,1,0,0,0-.946.672l-6.239,18A1,1,0,0,0,22.86,43h4.258A18.1,18.1,0,0,0,27,45H21.47a1,1,0,0,0-.945.672L17.289,55H14.405l7.57-21.812a1,1,0,0,0-.471-1.209L13,27.4V24.675l9.016,4.855a.99.99,0,0,0,.474.12,1.021,1.021,0,0,0,.364-.068,1,1,0,0,0,.581-.6L30.711,8H33.6L29.546,19.672A1,1,0,0,0,30.49,21H44a1,1,0,0,0,1-1V8h2v6a1,1,0,0,0,1,1H58v2H48a1,1,0,0,0-1,1v9.118A18.1,18.1,0,0,0,45,27V24A1,1,0,0,0,44,23ZM35.711,8H43V19H31.9ZM58,13H49V8h9ZM28.6,8,21.931,27.212,13,22.4V8ZM3,8A5.006,5.006,0,0,1,8,3h3V43H8a6.973,6.973,0,0,0-5,2.111ZM3,50a5.006,5.006,0,0,1,5-5h4a1,1,0,0,0,1-1V29.674l6.807,3.663L12.289,55H8A5.006,5.006,0,0,1,3,50Zm16.405,5,2.777-8h4.936a17.878,17.878,0,0,0,2.926,8ZM45,61A16,16,0,1,1,61,45,16.019,16.019,0,0,1,45,61Z"/><path d="M49,41V34a1,1,0,0,0-1-1H42a1,1,0,0,0-1,1v7H34a1,1,0,0,0-1,1v6a1,1,0,0,0,1,1h7v7a1,1,0,0,0,1,1h6a1,1,0,0,0,1-1V49h7a1,1,0,0,0,1-1V42a1,1,0,0,0-1-1Zm6,6H48a1,1,0,0,0-1,1v7H43V48a1,1,0,0,0-1-1H35V43h7a1,1,0,0,0,1-1V35h4v7a1,1,0,0,0,1,1h7Z"/></g></svg>